Coordinates
version=1
nRows=19
nColumns=36
inDegrees=yes

Units are S.I. units (second, meters, Newtons, ...)
If the header above contains a line with 'inDegrees', this indicates whether rotational values are in degrees (yes) or radians (no).

endheader
time	pelvis_tilt	pelvis_list	pelvis_rotation	pelvis_tx	pelvis_ty	pelvis_tz	hip_flexion_r	hip_adduction_r	hip_rotation_r	knee_angle_r	knee_angle_r_beta	ankle_angle_r	subtalar_angle_r	mtp_angle_r	hip_flexion_l	hip_adduction_l	hip_rotation_l	knee_angle_l	knee_angle_l_beta	ankle_angle_l	subtalar_angle_l	mtp_angle_l	lumbar_extension	lumbar_bending	lumbar_rotation	arm_flex_r	arm_add_r	arm_rot_r	elbow_flex_r	pro_sup_r	arm_flex_l	arm_add_l	arm_rot_l	elbow_flex_l	pro_sup_l
     14.81666670	     -0.78619568	     -3.06692548	     -6.88429878	      0.62976734	      0.88134199	      0.75275982	     26.04068821	      4.84722771	      0.55664825	     10.58684614	      0.18477532	      2.38859730	     -4.27673321	     -7.49999987	    -11.66653825	     -0.28946798	     -0.16970540	     18.81129103	      0.32831896	     20.61482929	     -5.86540347	     -7.49999987	     -3.66291511	      2.27359655	     -4.02228493	     -2.83031415	     -9.20549064	     -5.74606357	     11.50993048	    100.35087694	     14.02404257	    -11.73098800	     14.65866995	     24.68441097	     99.75487170
     14.83333330	     -1.15269997	     -3.05049548	     -6.71207368	      0.62979649	      0.88363487	      0.75337159	     26.24968699	      5.03361425	      0.69062303	     12.34745506	      0.21550375	      1.23436574	     -4.85811666	     -7.49999987	    -11.43749763	     -0.29997820	     -0.33634771	     20.55954510	      0.35883175	     18.75682117	     -6.22064023	     -7.49999987	     -3.31533495	      2.54859892	     -3.97397305	     -3.00835165	     -9.50430502	     -4.82292576	     11.21364396	     98.92610680	     13.48883146	    -11.45304481	     15.14065570	     24.10307866	     98.69999548
     14.85000000	     -1.36052296	     -2.99564078	     -6.73659294	      0.63045710	      0.88641655	      0.75544217	     26.25223942	      5.19222884	      1.04912143	     14.03845619	      0.24501728	      0.35045916	     -5.49527069	     -7.49999987	    -10.70491946	     -0.26462310	     -0.75351872	     23.16533128	      0.40431130	     15.88890905	     -6.96636643	     -7.49999987	     -3.17907325	      2.76741383	     -3.84936483	     -2.79944295	     -9.79922622	     -4.59246363	     10.99723060	    100.80477121	     12.80081678	    -11.04581606	     13.74803390	     23.67114011	    101.21472422
     14.86666670	     -1.04846178	     -3.12422194	     -6.86892984	      0.63425502	      0.88994503	      0.76033135	     25.44406646	      5.54257721	      1.38222974	     15.50607130	      0.27063200	      0.14918889	     -5.66797544	     -7.49999987	     -9.76859687	     -0.61677915	     -1.94577457	     26.91856520	      0.46981759	     12.20336470	     -6.87841738	     -7.49999987	     -3.72047833	      3.13101657	     -3.46807392	     -2.51811414	    -10.01874866	     -4.59940900	     11.59912400	    100.44650204	     12.20228567	    -10.87808050	     13.76201559	     23.54274247	    100.85132455
     14.88333330	     -0.66451996	     -3.37532754	     -7.07982878	      0.64270818	      0.89364477	      0.76690531	     24.27504769	      6.15722224	      2.10012092	     16.75493439	      0.29242877	      0.00545698	     -6.78944446	     -7.49999987	     -8.18750565	     -1.20077284	     -2.86953627	     31.91185315	      0.55696691	      6.54554326	     -8.44253868	     -7.49999987	     -4.07078106	      3.54015994	     -2.76801111	     -1.97414949	    -10.22166751	     -4.35928063	     11.46003852	    100.32086035	     11.87003876	    -10.40057931	     13.60095656	     22.50423080	    100.57902771
     14.90000000	      0.00721672	     -3.82660399	     -7.23382624	      0.65330717	      0.89828698	      0.77330325	     22.52164963	      6.94027924	      2.34737462	     17.80255797	      0.31071325	      0.64804740	     -7.20111640	     -7.49999987	     -6.53825783	     -2.36700390	     -4.25577610	     37.73921926	      0.65867363	      0.76761289	     -8.49072336	     -7.49999987	     -4.56324270	      4.04374753	     -2.02343924	     -1.29043785	    -10.43280961	     -3.46779232	     11.20197018	    100.41012229	     11.55362954	     -9.86119240	     13.38668680	     20.87934857	    100.30703048
     14.91666670	      0.80768854	     -4.51794969	     -7.37389826	      0.66199505	      0.90450529	      0.77811637	     20.30306481	      7.92226751	      2.31809830	     18.46875597	      0.32234060	      1.47705779	     -7.43272551	     -7.49999987	     -4.92983980	     -3.86118056	     -5.36795298	     43.78304846	      0.76415835	     -4.51690205	     -8.18716367	     -7.49999987	     -5.11638367	      4.73555729	     -1.22181140	     -0.53460337	    -10.68906656	     -2.06873290	     10.82898163	    100.42669792	     10.89591183	     -9.38790446	     13.02854792	     19.63111011	    100.02062048
     14.93333330	      1.82451911	     -5.24130798	     -7.54356688	      0.66640797	      0.91294976	      0.78084260	     17.56912380	      8.88313350	      2.47290217	     18.63432768	      0.32523037	      1.94647780	     -8.05631028	     -7.49999987	     -3.64191402	     -5.13274206	     -5.92764029	     49.33176812	      0.86100178	     -8.66912138	     -8.37457337	     -7.49999987	     -5.91682118	      5.47924310	     -0.43896426	      0.30114286	    -11.02432765	     -0.25713395	     10.94137818	     99.94320548	     10.12054651	     -9.01273265	     12.88219917	     18.32557068	     99.40174958
     14.95000000	      2.99819726	     -5.82675507	     -7.66083875	      0.66687949	      0.92196016	      0.78148123	     14.39357598	      9.58987240	      2.71820322	     18.13366303	      0.31649213	      2.03893658	     -8.82766869	     -7.49999987	     -2.57453588	     -5.99720171	     -6.02945156	     54.14087704	      0.94493656	    -11.12412407	     -8.92267882	     -7.49999987	     -6.93807771	      6.06948478	      0.47500616	      1.34298034	    -11.26933083	      0.86362329	     11.02310660	     99.35626391	      9.49502111	     -8.70996974	     12.91982813	     17.00709009	     98.89884082
     14.96666670	      4.33161980	     -6.06180875	     -7.52293861	      0.66549364	      0.92886601	      0.78068660	     10.82433510	      9.77318553	      2.95106781	     16.97421213	      0.29625589	      1.95170606	     -9.35880313	     -7.49999987	     -1.59607253	     -6.34660424	     -5.63703086	     57.99571944	      1.01221626	    -12.07803814	     -9.77255768	     -7.49999987	     -8.26166911	      6.24048506	      1.16019374	      2.40755226	    -11.42388988	      1.57194230	     11.78378085	     99.31452975	      8.89916471	     -8.71075165	     13.04366749	     16.24061358	     98.92769876
     14.98333330	      5.23471717	     -5.91512502	     -7.27131345	      0.66419403	      0.93145393	      0.77990105	      7.67527416	      9.52605579	      3.09456363	     15.50609778	      0.27063246	      2.28141021	     -9.47992155	     -7.49999987	      0.17291218	     -6.38611647	     -5.02238366	     61.22284376	      1.06854020	    -11.78122431	    -10.84312780	     -7.49999987	     -9.11325184	      6.03643045	      1.86418062	      3.42170364	    -11.49540781	      2.02035261	     12.49780477	     99.28022291	      8.36737097	     -8.78054008	     13.17333868	     15.80062553	     98.96484796
     15.00000000	      6.20169852	     -5.38694827	     -6.92314465	      0.66292898	      0.93219119	      0.78026549	      4.38701973	      8.79266315	      3.08505986	     13.74434714	      0.23988411	      3.24460791	     -8.68845230	     -7.49999987	      2.23257622	     -6.04247403	     -4.31642354	     63.58286293	      1.10973031	    -10.61392179	    -11.85260515	     -7.49999987	    -10.17723454	      5.33274886	      2.34310406	      4.53752913	    -11.63412641	      4.07127171	     13.73308834	     97.33438471	      8.01011962	     -9.04980046	     14.07332875	     15.36208729	     97.34679783
     15.01666670	      6.71517206	     -4.71055888	     -6.72907651	      0.66100346	      0.93361139	      0.78235257	      1.70742107	      7.95309572	      3.17574890	     12.10624259	      0.21129379	      4.36005655	     -7.91867636	     -7.49999987	      5.00906829	     -5.59551047	     -3.78110054	     65.13130629	      1.13675574	     -8.85698429	    -12.85722697	     -7.49999987	    -10.81472490	      4.51986229	      2.75078913	      5.66470733	    -11.85219315	      6.09296103	     15.34040818	     95.39790810	      7.44963127	     -9.50822113	     15.26224206	     15.55387287	     95.88173504
     15.03333330	      7.09127282	     -3.97127107	     -6.68348564	      0.65839014	      0.93701481	      0.78513719	     -0.68326462	      7.05142661	      3.37727227	     10.62739270	      0.18548299	      5.27182671	     -7.50621979	     -7.49999987	      7.82115818	     -5.02102571	     -3.48497857	     65.42260790	      1.14183991	     -7.06107698	    -13.92586228	     -7.49999987	    -11.46165870	      3.63444077	      3.09194599	      6.86234230	    -12.01995616	      6.89924314	     17.32304922	     92.98820664	      6.79089482	     -9.99319227	     15.77338624	     16.11004887	     93.64389383
     15.05000000	      7.06533713	     -3.27139551	     -6.83469144	      0.65617050	      0.93973609	      0.78721367	     -2.46287932	      6.20945060	      3.36135407	      9.42355062	      0.16447199	      6.26259409	     -6.63719729	     -7.49999987	     10.68062088	     -4.56458400	     -3.56034563	     64.39330842	      1.12387525	     -4.70242018	    -13.81493224	     -7.49999987	    -11.50022029	      2.76310421	      3.66659236	      8.30013055	    -12.63248047	     11.04704186	     18.46691601	     93.81309150	      6.52436650	    -10.62926825	     18.88110683	     15.96028393	     95.42761354
     15.06666670	      7.15061277	     -2.62238744	     -6.87963815	      0.65358919	      0.94137402	      0.78753193	     -4.22855487	      5.41241573	      2.97543714	      8.36660637	      0.14602483	      7.14530486	     -5.73623735	     -7.49999987	     12.95092905	     -4.08700380	     -3.78885914	     61.93859043	      1.08103234	     -2.68150493	    -13.89246012	     -7.49999987	    -11.88173478	      1.92266009	      4.06133569	      9.64459614	    -12.99610067	     12.01000258	     20.19565925	     95.03333065	      6.12011651	    -11.16155871	     19.28132584	     16.44800584	     97.76385420
     15.08333330	      7.11115510	     -2.02496452	     -6.92492744	      0.65009315	      0.94101231	      0.78666729	     -5.68599325	      4.72849639	      2.81951392	      7.49843874	      0.13087244	      7.62058549	     -5.56095469	     -7.49999987	     14.93282209	     -3.73075489	     -4.36024440	     58.41486193	      1.01953167	     -0.83903715	    -13.70728590	     -7.49999987	    -12.15830832	      1.13390682	      4.60417887	     11.05107384	    -13.37595453	     12.60155000	     21.65963778	     95.95132049	      6.03122399	    -11.54203344	     19.22561047	     16.62975000	    100.58925951
     15.10000000	      6.92377208	     -1.50108640	     -6.88148929	      0.64691793	      0.93738932	      0.78494210	     -6.82041489	      4.15178769	      2.40455395	      6.77389094	      0.11822670	      8.26932281	     -5.06390350	     -7.49999987	     16.80175685	     -3.50011109	     -5.12118442	     54.24293314	      0.94671778	      0.59224500	    -13.42812379	     -7.49999987	    -12.29576326	      0.46145350	      5.20742797	     12.49266525	    -14.00345729	     14.43015822	     23.11262627	     94.44006232	      6.35268432	    -11.86968714	     20.93741083	     16.40400156	     99.11900960
     15.11666670	      6.27637185	     -1.16319064	     -6.82983179	      0.64572669	      0.93249452	      0.78274654	     -7.34019358	      3.83727789	      2.27070282	      6.17814891	      0.10782904	      8.81964660	     -5.19488750	     -7.49999987	     19.03318608	     -3.43918372	     -5.75534241	     49.91439214	      0.87117049	      1.60465182	    -13.25335409	     -7.49999987	    -11.88842845	      0.18897433	      5.63636246	     13.99940522	    -14.40887210	     14.41902121	     24.15429932	     94.41231517	      6.30413067	    -11.98810370	     21.03745387	     16.54041157	     99.16765227
